<?xml version="1.0" encoding="UTF-8" standalone="no"?>
<svg
   xmlns:dc="http://purl.org/dc/elements/1.1/"
   xmlns:cc="http://creativecommons.org/ns#"
   xmlns:rdf="http://www.w3.org/1999/02/22-rdf-syntax-ns#"
   xmlns:svg="http://www.w3.org/2000/svg"
   xmlns="http://www.w3.org/2000/svg"
   xmlns:sodipodi="http://sodipodi.sourceforge.net/DTD/sodipodi-0.dtd"
   xmlns:inkscape="http://www.inkscape.org/namespaces/inkscape"
   sodipodi:docname="statistic_icon_unchecked.svg"
   inkscape:version="1.0 (4035a4fb49, 2020-05-01)"
   id="svg8"
   version="1.1"
   viewBox="0 0 55 55"
   height="55mm"
   width="55mm">
  <defs
     id="defs2" />
  <sodipodi:namedview
     inkscape:window-maximized="1"
     inkscape:window-y="0"
     inkscape:window-x="0"
     inkscape:window-height="694"
     inkscape:window-width="1364"
     showgrid="false"
     inkscape:document-rotation="0"
     inkscape:current-layer="layer1"
     inkscape:document-units="mm"
     inkscape:cy="111.90234"
     inkscape:cx="153.47554"
     inkscape:zoom="1.5607719"
     inkscape:pageshadow="2"
     inkscape:pageopacity="0.0"
     borderopacity="1.0"
     bordercolor="#666666"
     pagecolor="#ffffff"
     id="base" />
  <metadata
     id="metadata5">
    <rdf:RDF>
      <cc:Work
         rdf:about="">
        <dc:format>image/svg+xml</dc:format>
        <dc:type
           rdf:resource="http://purl.org/dc/dcmitype/StillImage" />
        <dc:title />
      </cc:Work>
    </rdf:RDF>
  </metadata>
  <g
     id="layer1"
     inkscape:groupmode="layer"
     inkscape:label="Calque 1">
    <rect
       style="opacity:0.995193;fill:#dddddd;fill-opacity:1;stroke:#283c78;stroke-width:1.5;stroke-linejoin:bevel;stroke-miterlimit:4;stroke-dasharray:none;stroke-dashoffset:0;stroke-opacity:1"
       id="rect847"
       width="13.519367"
       height="35.386883"
       x="1.8878536"
       y="18.075987"
       rx="0"
       ry="0" />
    <rect
       ry="0"
       rx="0"
       y="1.6188148"
       x="20.546606"
       height="51.844055"
       width="13.519367"
       id="rect849"
       style="opacity:0.995193;fill:#dddddd;fill-opacity:1;stroke:#283c78;stroke-width:1.5;stroke-linejoin:bevel;stroke-miterlimit:4;stroke-dasharray:none;stroke-dashoffset:0;stroke-opacity:1" />
    <rect
       style="opacity:0.995193;fill:#dddddd;fill-opacity:1;stroke:#283c78;stroke-width:1.5;stroke-linejoin:bevel;stroke-miterlimit:4;stroke-dasharray:none;stroke-dashoffset:0;stroke-opacity:1"
       id="rect851"
       width="13.519367"
       height="43.19096"
       x="39.714832"
       y="10.271914"
       rx="0"
       ry="0" />
    <g
       id="g899"
       transform="translate(-109.72085,-22.681974)">
      <ellipse
         style="opacity:0.995193;fill:#4077c6;fill-opacity:1;stroke:none;stroke-width:2;stroke-linejoin:bevel;stroke-miterlimit:4;stroke-dasharray:none;stroke-dashoffset:0;stroke-opacity:1"
         id="path853"
         cx="193.04971"
         cy="56.915264"
         rx="13.900561"
         ry="13.900562" />
      <path
         id="path4-3"
         d="m 193.2513,42.645979 c -7.81161,0 -14.14576,6.334157 -14.14576,14.145757 h -4.71525 l 6.11406,6.11411 0.1099,0.220035 6.34983,-6.334157 h -4.71525 c 0,-6.082673 4.9196,-11.002254 11.00229,-11.002254 6.08263,0 11.00224,4.919581 11.00224,11.002254 0,6.082679 -4.91961,11.002254 -11.00224,11.002254 -3.0335,0 -5.78407,-1.241678 -7.7645,-3.237803 l -2.23183,2.231884 c 2.56194,2.561955 6.08263,4.149422 9.99633,4.149422 7.81155,0 14.14575,-6.334156 14.14575,-14.145757 0,-7.811601 -6.3342,-14.145757 -14.14575,-14.145757 z m -1.5718,7.858756 v 7.85875 l 6.72713,3.992248 1.13165,-1.901819 -5.50111,-3.269239 v -6.67994 z"
         style="fill:#ffffff;fill-opacity:1;stroke-width:1.57175" />
    </g>
  </g>
</svg>
