<?xml version="1.0" encoding="UTF-8" standalone="no"?>
<svg
   xmlns:dc="http://purl.org/dc/elements/1.1/"
   xmlns:cc="http://creativecommons.org/ns#"
   xmlns:rdf="http://www.w3.org/1999/02/22-rdf-syntax-ns#"
   xmlns:svg="http://www.w3.org/2000/svg"
   xmlns="http://www.w3.org/2000/svg"
   xmlns:sodipodi="http://sodipodi.sourceforge.net/DTD/sodipodi-0.dtd"
   xmlns:inkscape="http://www.inkscape.org/namespaces/inkscape"
   sodipodi:docname="wallet_icon_unchecked.svg"
   inkscape:version="1.0 (4035a4fb49, 2020-05-01)"
   id="svg8"
   version="1.1"
   viewBox="0 0 55 55"
   height="55mm"
   width="55mm">
  <defs
     id="defs2" />
  <sodipodi:namedview
     inkscape:window-maximized="1"
     inkscape:window-y="0"
     inkscape:window-x="0"
     inkscape:window-height="694"
     inkscape:window-width="1364"
     showgrid="false"
     inkscape:document-rotation="0"
     inkscape:current-layer="g1042"
     inkscape:document-units="mm"
     inkscape:cy="154.53123"
     inkscape:cx="106.17329"
     inkscape:zoom="0.96514407"
     inkscape:pageshadow="2"
     inkscape:pageopacity="0.0"
     borderopacity="1.0"
     bordercolor="#666666"
     pagecolor="#ffffff"
     id="base" />
  <metadata
     id="metadata5">
    <rdf:RDF>
      <cc:Work
         rdf:about="">
        <dc:format>image/svg+xml</dc:format>
        <dc:type
           rdf:resource="http://purl.org/dc/dcmitype/StillImage" />
        <dc:title />
      </cc:Work>
    </rdf:RDF>
  </metadata>
  <g
     id="layer1"
     inkscape:groupmode="layer"
     inkscape:label="Calque 1">
    <g
       transform="translate(-104.78271,-87.959228)"
       id="g1042">
      <path
         id="path4"
         d="m 155.63012,129.0412 v 2.08731 c 0,2.29606 -2.42454,4.17468 -5.38804,4.17468 h -37.71589 c -2.99037,0 -5.38804,-1.87862 -5.38804,-4.17468 v -29.22262 c 0,-2.296043 2.39767,-4.174592 5.38804,-4.174592 h 37.71589 c 2.9635,0 5.38804,1.878549 5.38804,4.174592 v 2.08739 h -24.24599 c -2.99037,0 -5.38802,1.87855 -5.38802,4.1746 v 16.69865 c 0,2.29605 2.39765,4.17467 5.38802,4.17467 z m -24.24599,-4.17467 h 26.93995 v -16.69865 h -26.93995 z m 10.77597,-5.21833 c -2.23598,0 -4.04096,-1.3985 -4.04096,-3.13097 0,-1.73251 1.80498,-3.13102 4.04096,-3.13102 2.23608,0 4.04104,1.39851 4.04104,3.13102 0,1.73247 -1.80496,3.13097 -4.04104,3.13097 z"
         style="fill:#dddddd;fill-opacity:1;stroke:#283c78;stroke-width:1.5;stroke-miterlimit:4;stroke-dasharray:none;stroke-opacity:1" />
      <circle
         style="opacity:0.995193;fill:#4077c6;fill-opacity:1;stroke:#ffffff;stroke-width:2;stroke-linejoin:bevel;stroke-miterlimit:4;stroke-dasharray:none;stroke-dashoffset:0;stroke-opacity:1"
         id="path929"
         cx="189.3176"
         cy="125.78356"
         r="13.143664" />
      <g
         transform="translate(69.140062,2.4047945)"
         style="font-style:normal;font-weight:normal;font-size:13.1347px;line-height:1.25;font-family:sans-serif;letter-spacing:0px;word-spacing:0px;fill:#000000;fill-opacity:1;stroke:none;stroke-width:0.328368"
         id="text933"
         aria-label="CT">
        <path
           id="path835"
           style="font-style:normal;font-variant:normal;font-weight:normal;font-stretch:normal;font-family:'AR DESTINE';-inkscape-font-specification:'AR DESTINE';fill:#ffffff;fill-opacity:1;stroke-width:0.328368"
           d="m 113.61249,120.48852 v -1.03898 q 0,-0.41046 0.30784,-0.7183 0.30784,-0.30785 0.73113,-0.30785 h 4.19438 l 1.3853,2.06513 z m 5.23335,6.2082 h -4.19438 q -0.42329,0 -0.73113,-0.30785 -0.30784,-0.30784 -0.30784,-0.73113 v -4.75876 h 2.07795 v 3.73261 h 4.5407 z" />
        <path
           id="path837"
           style="font-style:normal;font-variant:normal;font-weight:normal;font-stretch:normal;font-family:'AR DESTINE';-inkscape-font-specification:'AR DESTINE';fill:#ffffff;fill-opacity:1;stroke-width:0.328368"
           d="m 126.69588,120.48852 h -1.51357 v -2.06513 h 2.89887 z m -3.98915,6.2082 v -6.2082 h -2.06513 v -2.06513 h 4.13025 v 8.27333 z" />
      </g>
    </g>
  </g>
</svg>
